<svg
  width="48"
  height="48"
  viewBox="0 0 48 48"
  fill="none"
  xmlns="http://www.w3.org/2000/svg"
>
  <rect width="48" height="48" rx="8" fill="#F9F9F6" />
  <path
    d="M36.2175 9.10239C35.8932 8.60575 35.4194 8.59149 34.8795 8.57523C34.8183 8.57339 34.7563 8.57153 34.6936 8.56893C34.6458 8.56673 34.5931 8.56758 34.538 8.56846C34.319 8.57198 34.0629 8.57609 33.9339 8.39212C33.7843 8.17883 33.7985 7.76663 33.8102 7.42635C33.8139 7.31882 33.8173 7.21841 33.8153 7.1338C33.7943 6.34332 33.7504 5.50363 33.4453 5.22292C33.2152 5.01231 32.5268 5.04149 31.892 5.0684C31.6862 5.07712 31.486 5.0856 31.3089 5.0856H17.796C17.5239 5.0856 17.2387 5.06345 16.9585 5.04168C16.4125 4.99927 15.8853 4.95832 15.511 5.0856C14.9677 5.27123 14.931 6.24667 14.8963 7.16519L14.8945 7.21461C14.8654 7.97288 14.6775 8.55799 14.0547 8.49906C13.3303 8.43161 12.6095 8.41035 12.282 9.06594C11.8952 9.84161 11.975 10.6536 12.1178 12.1079C12.1383 12.3157 12.16 12.5365 12.1818 12.7723H36.4264C36.4403 12.6 36.455 12.4299 36.4696 12.2625C36.5831 10.9541 36.682 9.81402 36.2175 9.10239Z"
    fill="#8047F8"
  />
  <path
    fillRule="evenodd"
    clipRule="evenodd"
    d="M14.0699 14.2147C14.4485 19.3395 14.823 24.4701 15.1976 29.6009L15.1978 29.604C15.4012 32.3898 15.6045 35.1757 15.8085 37.9606H16.5821C16.6348 38.3965 16.6951 38.9347 16.7587 39.5021C16.8878 40.6539 17.0304 41.9264 17.1503 42.7083H17.2359C18.0239 42.42 23.4712 40.0916 23.4736 30.8218C23.4726 30.7954 23.4735 30.7689 23.4762 30.7427H22.1304C22.0653 30.7421 22.0021 30.7203 21.9507 30.6808C21.8993 30.6413 21.8624 30.5861 21.8458 30.5238C21.7146 30.1999 21.6089 29.8664 21.5295 29.5264C20.7378 29.9736 20.1091 30.6564 19.733 31.4775C19.3759 30.6365 19.3292 29.6983 19.6009 28.8267C19.8727 27.9551 20.4456 27.2057 21.2195 26.7093C21.2295 24.0043 22.2423 21.3968 24.0661 19.3804L24.0946 19.3553C24.1476 19.3095 24.2155 19.284 24.2859 19.2834C24.3266 19.2838 24.3668 19.2925 24.4039 19.309C24.4415 19.3257 24.4751 19.35 24.5026 19.3804C26.3478 21.3996 27.3552 24.0321 27.3239 26.7531C28.1123 27.2356 28.6969 27.9845 28.9691 28.8608C29.2413 29.7371 29.1827 30.6813 28.8042 31.5181C28.4301 30.6957 27.8008 30.0123 27.0076 29.5671C26.9592 29.8966 26.8699 30.219 26.7419 30.527C26.6977 30.6583 26.6091 30.7427 26.5205 30.7427H25.0853C25.0876 30.7584 25.0892 30.7742 25.0901 30.7901L25.0907 30.7937V30.8014C25.0912 30.815 25.0912 30.8287 25.0907 30.8424C25.1104 40.3783 30.902 42.5428 31.3902 42.7083H31.5572C31.5998 41.9572 31.7386 40.9208 31.8739 39.9104C31.9671 39.2142 32.0587 38.5302 32.116 37.9606H32.8985C33.149 34.4527 33.4066 30.9546 33.6642 27.4564L33.6644 27.4545L33.6645 27.4535C33.994 22.9789 34.3235 18.5042 34.6381 14.0087H14.12C14.0609 14.0202 14.0649 14.1169 14.0699 14.2147ZM24.2859 19.2834L24.2844 19.2834H24.2875L24.2859 19.2834Z"
    fill="#8047F8"
  />
</svg>
